<svg width="400" height="400" viewBox="0 0 400 400" fill="none" xmlns="http://www.w3.org/2000/svg">
<g clip-path="url(#clip0_710_377)">
<rect width="400" height="400" fill="#021529"/>
<g opacity="0.5" filter="url(#filter0_f_710_377)">
<circle cx="-177" cy="601" r="575" fill="#557392"/>
</g>
<g opacity="0.3">
<path opacity="0.05" d="M-773 672L59.2311 -159.976C67.0411 -167.784 79.701 -167.784 87.511 -159.976L695.554 447.88C703.364 455.688 716.024 455.688 723.834 447.88L1658 -486" stroke="white"/>
<path opacity="0.1" d="M-773 727L59.2189 -106.401C67.0316 -114.225 79.7104 -114.225 87.5232 -106.401L695.542 502.481C703.354 510.305 716.033 510.305 723.846 502.481L1658 -433" stroke="white"/>
<path opacity="0.15" d="M-773 781L59.2189 -52.4011C67.0316 -60.2249 79.7104 -60.2249 87.5232 -52.4011L695.542 556.481C703.354 564.305 716.033 564.305 723.846 556.481L1658 -379" stroke="white"/>
<path opacity="0.2" d="M-773 833L59.225 0.311302C67.0363 -7.50444 79.7057 -7.50444 87.5171 0.311302L695.548 608.681C703.359 616.496 716.028 616.496 723.84 608.681L1658 -326" stroke="white"/>
<path opacity="0.25" d="M-773 888L59.2311 56.0236C67.0411 48.216 79.701 48.216 87.511 56.0236L695.554 663.88C703.364 671.688 716.024 671.688 723.834 663.88L1658 -270" stroke="white"/>
<path opacity="0.3" d="M-773 941L59.2189 107.599C67.0316 99.7751 79.7104 99.7751 87.5232 107.599L695.542 716.481C703.354 724.305 716.033 724.305 723.846 716.481L1658 -219" stroke="white"/>
<path opacity="0.35" d="M-773 995L59.2189 161.599C67.0316 153.775 79.7104 153.775 87.5232 161.599L695.542 770.481C703.354 778.305 716.033 778.305 723.846 770.481L1658 -165" stroke="white"/>
<path opacity="0.4" d="M-773 1048L59.2311 216.024C67.0411 208.216 79.701 208.216 87.511 216.024L695.554 823.88C703.364 831.688 716.024 831.688 723.834 823.88L1658 -110" stroke="white"/>
<path opacity="0.45" d="M-773 1102L59.2128 267.887C67.027 260.055 79.7151 260.055 87.5293 267.887L695.536 877.281C703.35 885.113 716.038 885.113 723.852 877.281L1658 -59" stroke="white"/>
<path opacity="0.5" d="M-773 1155L59.2311 323.024C67.0411 315.216 79.701 315.216 87.511 323.024L695.554 930.88C703.364 938.688 716.024 938.688 723.834 930.88L1658 -3" stroke="white"/>
<path opacity="0.55" d="M-773 1209L59.2311 377.024C67.0411 369.216 79.701 369.216 87.511 377.024L695.554 984.88C703.364 992.688 716.024 992.688 723.834 984.88L1658 51" stroke="white"/>
<path opacity="0.6" d="M-773 1263L59.225 430.311C67.0363 422.496 79.7057 422.496 87.5171 430.311L695.548 1038.68C703.359 1046.5 716.028 1046.5 723.84 1038.68L1658 104" stroke="white"/>
<path opacity="0.7" d="M-773 1316L59.225 483.311C67.0363 475.496 79.7057 475.496 87.5171 483.311L695.548 1091.68C703.359 1099.5 716.028 1099.5 723.84 1091.68L1658 157" stroke="white"/>
<path opacity="0.8" d="M-773 1370L59.225 537.311C67.0363 529.496 79.7057 529.496 87.5171 537.311L695.548 1145.68C703.359 1153.5 716.028 1153.5 723.84 1145.68L1658 211" stroke="white"/>
</g>
<path fill-rule="evenodd" clip-rule="evenodd" d="M103.968 266.377L94.4268 302.808H134.328L152.519 230.046L144.888 227.026L104.753 267.161L103.968 266.377ZM120.976 201.439L125.776 196.639L125.9 196.515C130.344 192.16 136.318 189.72 142.54 189.72C147.206 189.72 151.732 191.092 155.578 193.615L160.959 195.744L179.13 121.501H184.73L208.119 214.404L221.865 219.844L242.897 198.812L216.232 97H148.329L120.976 201.439ZM253.17 238.038L240.977 250.231L240.852 250.355C236.409 254.71 230.435 257.15 224.213 257.15C222.325 257.15 220.459 256.925 218.653 256.49L230.232 302.808H270.134L253.17 238.038Z" fill="white"/>
<path fill-rule="evenodd" clip-rule="evenodd" d="M276.152 177.503H251.338V156.502H301.5C307.299 156.502 312 161.203 312 167.003V217.165H290.999V192.355L238.074 245.281L237.999 245.355C234.864 248.427 230.649 250.149 226.26 250.149C222.747 250.149 219.347 249.047 216.522 247.032L145.235 218.825L101.85 262.21L87 247.361L132.773 201.588L132.847 201.514C135.982 198.441 140.197 196.72 144.587 196.72C148.099 196.72 151.5 197.822 154.325 199.837L225.611 228.043L276.152 177.503Z" fill="url(#paint0_linear_710_377)"/>
</g>
<defs>
<filter id="filter0_f_710_377" x="-1202" y="-424" width="2050" height="2050" filterUnits="userSpaceOnUse" color-interpolation-filters="sRGB">
<feFlood flood-opacity="0" result="BackgroundImageFix"/>
<feBlend mode="normal" in="SourceGraphic" in2="BackgroundImageFix" result="shape"/>
<feGaussianBlur stdDeviation="225" result="effect1_foregroundBlur_710_377"/>
</filter>
<linearGradient id="paint0_linear_710_377" x1="87" y1="252.982" x2="314.713" y2="228.894" gradientUnits="userSpaceOnUse">
<stop stop-color="#FFCB36"/>
<stop offset="1" stop-color="#FFA336"/>
</linearGradient>
<clipPath id="clip0_710_377">
<rect width="400" height="400" fill="white"/>
</clipPath>
</defs>
</svg>
